<?xml version="1.0" standalone="no"?>
<!DOCTYPE svg PUBLIC "-//W3C//DTD SVG 20010904//EN"
 "http://www.w3.org/TR/2001/REC-SVG-20010904/DTD/svg10.dtd">
<svg version="1.0" xmlns="http://www.w3.org/2000/svg"
 width="245.000000pt" height="245.000000pt" viewBox="0 0 245.000000 245.000000"
 preserveAspectRatio="xMidYMid meet">
<metadata>
Created by potrace 1.14, written by Peter Selinger 2001-2017
</metadata>
<g transform="translate(0.000000,245.000000) scale(0.100000,-0.100000)"
fill="#000000" stroke="none">
<path d="M1055 2428 c-27 -5 -63 -11 -78 -13 -107 -16 -318 -104 -427 -178
-233 -157 -399 -381 -488 -657 -40 -124 -54 -214 -54 -357 -1 -144 14 -248 54
-373 28 -88 98 -243 118 -264 12 -12 140 -15 140 -4 0 5 -12 27 -26 50 -97
153 -154 370 -154 583 1 119 5 157 29 260 86 361 350 654 696 773 142 49 184
56 355 56 151 0 174 -2 263 -27 140 -40 282 -104 367 -165 247 -179 422 -464
456 -742 28 -231 -9 -449 -111 -655 -62 -125 -114 -199 -216 -302 l-71 -73 18
-27 c29 -46 44 -53 74 -35 14 9 62 53 108 99 86 87 171 207 217 307 36 79 76
186 70 186 -3 0 -1 9 5 19 5 11 13 37 16 58 3 21 8 41 10 45 15 24 23 278 12
373 -47 394 -306 763 -661 941 -76 39 -251 100 -312 110 -22 3 -60 9 -84 14
-56 10 -259 9 -326 -2z"/>
<path d="M1338 2109 c-272 -40 -515 -250 -581 -501 l-14 -55 46 -30 c73 -48
144 -67 248 -68 51 0 93 -3 93 -6 0 -8 -68 -38 -100 -44 -104 -21 -247 18
-292 80 -8 11 -8 11 -12 -43 -2 -31 5 -96 19 -172 20 -110 128 -247 212 -271
27 -7 54 -12 61 -11 19 4 9 -66 -22 -158 l-24 -70 46 -21 c26 -12 96 -46 156
-76 l109 -55 -26 45 c-74 126 -81 292 -18 415 20 39 21 46 8 60 -53 61 -75
168 -44 216 13 19 115 86 131 86 2 0 -3 -19 -12 -42 -15 -44 -21 -178 -9 -231
13 -59 67 -158 112 -202 25 -26 48 -45 51 -43 2 3 -8 27 -22 53 -21 41 -26 63
-26 130 -2 111 21 162 147 330 57 77 122 176 144 219 34 68 41 76 45 55 15
-62 23 -163 21 -256 l-3 -102 34 25 c56 43 114 116 146 181 65 137 29 283 -98
402 -132 124 -340 187 -526 160z"/>
<path d="M725 2090 c-104 -41 -184 -152 -186 -258 -2 -71 38 -152 94 -191 23
-16 46 -29 51 -30 5 -1 17 23 28 54 40 119 122 240 223 329 30 26 55 52 55 57
0 5 -19 18 -42 30 -61 31 -158 35 -223 9z"/>
<path d="M2053 1632 c0 -45 -57 -157 -108 -211 l-47 -51 4 -67 c3 -55 10 -77
36 -117 18 -28 32 -53 32 -58 0 -4 -18 -19 -40 -33 -34 -22 -40 -30 -40 -60 0
-28 -5 -38 -25 -47 -27 -12 -32 -24 -13 -30 7 -3 0 -16 -17 -34 -15 -17 -29
-44 -31 -60 -6 -56 -14 -72 -43 -84 -30 -12 -87 -9 -151 10 -53 15 -84 12
-108 -10 -40 -38 -29 -67 58 -157 44 -46 109 -119 146 -163 36 -44 68 -80 71
-80 11 0 98 73 142 119 148 155 241 349 268 561 12 93 7 223 -12 305 -23 100
-99 295 -115 295 -4 0 -7 -13 -7 -28z"/>
<path d="M437 1543 c-16 -4 -16 -6 3 -21 11 -9 26 -34 35 -54 15 -36 15 -36
-13 -42 -60 -13 -143 -16 -184 -7 -49 11 -52 10 -43 -19 17 -53 91 -96 147
-85 75 15 88 17 88 11 0 -4 -11 -29 -25 -56 -32 -64 -118 -151 -180 -182 l-49
-25 28 -19 c58 -37 112 -20 188 61 15 16 28 27 29 25 0 -3 1 -88 2 -190 2
-163 4 -189 21 -214 17 -27 19 -28 29 -10 23 42 33 126 32 282 0 89 2 162 5
162 4 0 16 -18 29 -40 25 -44 69 -80 99 -80 69 0 69 39 -2 108 -48 47 -104
134 -120 188 -6 18 0 22 49 33 47 11 54 15 46 29 -15 28 -47 53 -70 55 -13 1
-22 10 -26 28 -11 47 -66 77 -118 62z"/>
<path d="M655 673 l0 -128 70 -18 c309 -80 598 -200 835 -348 l115 -71 63 32
c34 18 62 37 62 42 0 11 -147 239 -159 248 -4 3 -14 14 -22 26 -8 12 -43 54
-79 94 -36 40 -68 77 -72 83 -39 61 43 -159 101 -271 12 -24 20 -46 17 -49 -4
-4 -118 77 -136 98 -3 3 -27 21 -55 40 -27 18 -51 37 -53 42 -2 4 -8 7 -13 7
-5 0 -32 15 -61 33 -76 48 -229 127 -328 169 -97 41 -256 98 -274 98 -9 0 -12
-34 -11 -127z"/>
<path d="M320 409 c0 -5 3 -9 8 -9 4 0 30 -21 57 -46 64 -58 210 -157 294
-198 203 -102 467 -147 691 -120 96 12 101 17 50 49 -238 151 -613 284 -902
320 -83 11 -198 13 -198 4z"/>
</g>
</svg>
