<svg xmlns="http://www.w3.org/2000/svg" width="32" height="32" viewBox="0 0 24 24" fill="none">
  <path fill="#BD081C" d="M12 2.04c-5.52 0-10 4.48-10 10 0 4.19 2.57 7.77 6.2 9.27-.09-.79-.16-2.01.03-2.88.17-.73 1.13-4.64 1.13-4.64s-.29-.58-.29-1.45c0-1.36.79-2.37 1.76-2.37.83 0 1.23.62 1.23 1.37 0 .83-.53 2.08-.81 3.24-.23.97.48 1.75 1.44 1.75 1.73 0 2.9-2.24 2.9-4.89 0-2.02-1.36-3.53-3.83-3.53-2.79 0-4.51 2.08-4.51 4.42 0 .79.3 1.64.67 2.1.08.1.09.18.07.29-.08.32-.27 1.01-.3 1.14-.05.22-.17.26-.39.16-1.46-.67-2.37-2.77-2.37-4.45 0-3.63 2.63-6.97 7.6-6.97 3.98 0 7.08 2.83 7.08 6.6 0 3.96-2.5 7.14-5.96 7.14-1.16 0-2.26-.6-2.64-1.3 0 0-.58 2.21-.73 2.76-.26 1-.96 2.26-1.44 3.01 1.09.34 2.26.52 3.47.52 5.52 0 10-4.48 10-10s-4.48-10-10-10z"/>
</svg>